<?xml version="1.0" encoding="UTF-8" standalone="no"?>
<svg viewBox="0 0 454 454" version="1.1" xmlns="http://www.w3.org/2000/svg" xmlns:xlink="http://www.w3.org/1999/xlink">
<title>Camera Shutter Icon</title>
<!-- from http://gambargadget.info/camera-shutter-icon/ -->
<g transform="translate(0,454) scale(0.1,-0.1)" fill="#000000" stroke="none">
<path d="M2010 4490 c-120 -16 -132 -20 -126 -36 5 -13 1118 -1948 1166 -2027
l17 -28 407 708 406 707 -52 54 c-70 72 -223 194 -328 263 -250 165 -529 276
-839 335 -116 22 -169 27 -361 30 -124 1 -254 -1 -290 -6z"/>
<path d="M1620 4406 c-359 -113 -662 -297 -930 -565 -181 -182 -307 -356 -418
-578 -50 -99 -102 -219 -102 -235 0 -4 536 -8 1191 -8 689 0 1189 4 1187 9 -9
24 -813 1411 -817 1411 -4 -1 -53 -16 -111 -34z"/>
<path d="M3382 2682 c-325 -567 -592 -1035 -592 -1041 0 -8 236 -11 810 -11
l809 0 16 53 c57 198 79 397 72 651 -7 258 -37 429 -122 677 -70 205 -245 519
-367 663 l-33 38 -593 -1030z"/>
<path d="M101 2803 c-56 -239 -76 -538 -52 -753 31 -270 105 -529 220 -765 92
-188 281 -470 301 -448 5 4 263 453 575 998 312 545 576 1005 587 1023 l20 32
-815 0 -815 0 -21 -87z"/>
<path d="M1277 1798 c-102 -178 -282 -492 -401 -698 l-215 -375 52 -53 c168
-173 438 -351 692 -457 264 -111 511 -164 802 -172 179 -5 399 8 429 26 10 6
-1153 2050 -1168 2051 -3 0 -90 -145 -191 -322z"/>
<path d="M1994 1478 c8 -13 188 -327 401 -698 213 -371 389 -677 391 -679 7
-8 169 41 282 85 576 224 1045 685 1275 1252 l26 62 -1195 0 -1194 0 14 -22z"/>
</g>
</svg>
